<?xml version="1.0" encoding="iso-8859-1"?>
<!-- Generator: Adobe Illustrator 16.0.0, SVG Export Plug-In . SVG Version: 6.00 Build 0)  -->
<!DOCTYPE svg PUBLIC "-//W3C//DTD SVG 1.1//EN" "http://www.w3.org/Graphics/SVG/1.1/DTD/svg11.dtd">
<svg xmlns="http://www.w3.org/2000/svg" xmlns:xlink="http://www.w3.org/1999/xlink" version="1.1" id="Capa_1" x="0px" y="0px" width="512px" height="512px" viewBox="0 0 235.011 235.011" style="enable-background:new 0 0 235.011 235.011;" xml:space="preserve">
<g>
	<path d="M227.934,88.569c-13.553,0-32.443,20.703-37.93,27.051l-16.667-0.613l14.519-7.55l-1.807-3.477l-20.654,10.734   l-15.962-0.581l17.692-17.029l-2.729-2.825l-20.414,19.654l-15.433-0.561l18.711-25.227l-3.15-2.338l-20.321,27.393l-15.733-0.583   l19.276-33.372l-3.41-1.963l-20.3,35.169l-17.61-0.651c1.541-20.983,10.028-37.177-11.726-37.177   C50.602,74.621,0,101.671,0,125.357c0,0,50.602,35.033,74.286,35.033c21.754,0,13.267-16.189,11.726-37.165l17.61-0.661   l20.3,35.169l3.41-1.963l-19.276-33.374l15.741-0.581l20.33,27.374l3.142-2.336l-18.711-25.223l15.437-0.561l20.402,19.644   l2.729-2.812l-17.664-17.02l15.961-0.585l20.639,10.72l1.803-3.482l-14.498-7.53l16.639-0.605   c5.486,6.348,24.377,27.042,37.93,27.042c15.979,0-0.104-12.943-0.104-28.925C227.842,101.521,243.913,88.569,227.934,88.569z    M39.666,110.958c-3.777,0-6.838-3.062-6.838-6.839c0-3.767,3.062-6.83,6.838-6.83c3.767,0,6.831,3.063,6.831,6.83   C46.504,107.897,43.433,110.958,39.666,110.958z" fill="#ecf0f1"/>
</g>
<g>
</g>
<g>
</g>
<g>
</g>
<g>
</g>
<g>
</g>
<g>
</g>
<g>
</g>
<g>
</g>
<g>
</g>
<g>
</g>
<g>
</g>
<g>
</g>
<g>
</g>
<g>
</g>
<g>
</g>
</svg>
